# xmcd CD database file
#
# Track frame offsets:
#	150
#	10410
#	28615
#	39292
#	49160
#	58285
#	70055
#	85610
#	99230
#	118030
#	130137
#	142347
#	153610
#	164372
#	174490
#	184040
#	194992
#	208440
#	216665
#	228735
#
# Disc length: 3211 seconds
#
# Revision: 2
# Processed by: cddbd v1.5.2PL0 Copyright (c) Steve Scherf et al.
# Submitted via: CDex 1.70beta2
#
DISCID=350c8914
DTITLE=Various Artist - Country Music Express - 20 Country Hits
DYEAR=1900
DGENRE=Country
TTITLE0=Jim Reeves - Memories Are Made Of This
TTITLE1=Ricky Nelson - Garden Party
TTITLE2=Lynn Anderson - Silver Threads And Golden Needles
TTITLE3=Hank Locklin - Please Help Me I`m Falling
TTITLE4=Glenn Campbell - Walk Right In
TTITLE5=Kenny Rogers - Me And Bobby McGee
TTITLE6=Hoyt Axton - Evangelina
TTITLE7=Jimmy Dean - Big Bad John
TTITLE8=Ralph McTell - Streets Of London
TTITLE9=Everly Brothers - Let It Be Me
TTITLE10=Johnny Preston - Running Bear
TTITLE11=Patsy Cline - Stop The World
TTITLE12=Fats Domino - Blueberry Hill
TTITLE13=Ned Miller - From A Jack To A King
TTITLE14=Skeeter Davis - Am I That Easy To Forget
TTITLE15=Roger Miller - King Of The Road
TTITLE16=Patti Page - Tennesee Waltz
TTITLE17=Johnny Cash - Country Boy
TTITLE18=Frankie Lane - High Noon
TTITLE19=Roy Orbison - Blue Bayou
EXTD=
EXTT0=
EXTT1=
EXTT2=
EXTT3=
EXTT4=
EXTT5=
EXTT6=
EXTT7=
EXTT8=
EXTT9=
EXTT10=
EXTT11=
EXTT12=
EXTT13=
EXTT14=
EXTT15=
EXTT16=
EXTT17=
EXTT18=
EXTT19=
PLAYORDER=
